<svg xmlns="http://www.w3.org/2000/svg" viewBox="0 0 552 552" width="552" height="552" shape-rendering="crispEdges">
  <defs>
    <symbol id="flipper-px" overflow="visible"><rect x="416" y="129" width="20" height="5"></rect><rect x="416" y="134" width="30" height="5"></rect><rect x="431" y="139" width="25" height="5"></rect><rect x="441" y="144" width="20" height="5"></rect><rect x="151" y="149" width="75" height="5"></rect><rect x="451" y="149" width="15" height="5"></rect><rect x="131" y="154" width="25" height="5"></rect><rect x="221" y="154" width="30" height="5"></rect><rect x="416" y="154" width="15" height="5"></rect><rect x="456" y="154" width="15" height="5"></rect><rect x="116" y="159" width="20" height="5"></rect><rect x="226" y="159" width="5" height="5"></rect><rect x="236" y="159" width="30" height="5"></rect><rect x="416" y="159" width="25" height="5"></rect><rect x="461" y="159" width="15" height="5"></rect><rect x="111" y="164" width="65" height="5"></rect><rect x="221" y="164" width="5" height="5"></rect><rect x="231" y="164" width="5" height="5"></rect><rect x="261" y="164" width="15" height="5"></rect><rect x="426" y="164" width="20" height="5"></rect><rect x="466" y="164" width="15" height="5"></rect><rect x="101" y="169" width="15" height="5"></rect><rect x="176" y="169" width="15" height="5"></rect><rect x="216" y="169" width="5" height="5"></rect><rect x="226" y="169" width="5" height="5"></rect><rect x="261" y="169" width="25" height="5"></rect><rect x="436" y="169" width="15" height="5"></rect><rect x="471" y="169" width="10" height="5"></rect><rect x="91" y="174" width="15" height="5"></rect><rect x="191" y="174" width="15" height="5"></rect><rect x="211" y="174" width="5" height="5"></rect><rect x="221" y="174" width="5" height="5"></rect><rect x="256" y="174" width="5" height="5"></rect><rect x="281" y="174" width="10" height="5"></rect><rect x="441" y="174" width="15" height="5"></rect><rect x="471" y="174" width="15" height="5"></rect><rect x="86" y="179" width="10" height="5"></rect><rect x="196" y="179" width="5" height="5"></rect><rect x="206" y="179" width="15" height="5"></rect><rect x="251" y="179" width="5" height="5"></rect><rect x="286" y="179" width="10" height="5"></rect><rect x="416" y="179" width="15" height="5"></rect><rect x="446" y="179" width="15" height="5"></rect><rect x="476" y="179" width="10" height="5"></rect><rect x="81" y="184" width="10" height="5"></rect><rect x="191" y="184" width="5" height="5"></rect><rect x="201" y="184" width="5" height="5"></rect><rect x="211" y="184" width="5" height="5"></rect><rect x="246" y="184" width="5" height="5"></rect><rect x="271" y="184" width="5" height="5"></rect><rect x="291" y="184" width="10" height="5"></rect><rect x="416" y="184" width="20" height="5"></rect><rect x="451" y="184" width="10" height="5"></rect><rect x="476" y="184" width="15" height="5"></rect><rect x="76" y="189" width="10" height="5"></rect><rect x="186" y="189" width="5" height="5"></rect><rect x="196" y="189" width="5" height="5"></rect><rect x="206" y="189" width="5" height="5"></rect><rect x="241" y="189" width="5" height="5"></rect><rect x="276" y="189" width="5" height="5"></rect><rect x="296" y="189" width="10" height="5"></rect><rect x="426" y="189" width="15" height="5"></rect><rect x="451" y="189" width="15" height="5"></rect><rect x="481" y="189" width="10" height="5"></rect><rect x="71" y="194" width="10" height="5"></rect><rect x="181" y="194" width="5" height="5"></rect><rect x="191" y="194" width="5" height="5"></rect><rect x="201" y="194" width="5" height="5"></rect><rect x="236" y="194" width="5" height="5"></rect><rect x="256" y="194" width="5" height="5"></rect><rect x="281" y="194" width="5" height="5"></rect><rect x="301" y="194" width="5" height="5"></rect><rect x="431" y="194" width="10" height="5"></rect><rect x="456" y="194" width="10" height="5"></rect><rect x="481" y="194" width="10" height="5"></rect><rect x="66" y="199" width="10" height="5"></rect><rect x="186" y="199" width="5" height="5"></rect><rect x="196" y="199" width="10" height="5"></rect><rect x="231" y="199" width="5" height="5"></rect><rect x="261" y="199" width="5" height="5"></rect><rect x="286" y="199" width="5" height="5"></rect><rect x="301" y="199" width="10" height="5"></rect><rect x="346" y="199" width="45" height="5"></rect><rect x="431" y="199" width="10" height="5"></rect><rect x="456" y="199" width="10" height="5"></rect><rect x="481" y="199" width="10" height="5"></rect><rect x="66" y="204" width="5" height="5"></rect><rect x="181" y="204" width="5" height="5"></rect><rect x="191" y="204" width="10" height="5"></rect><rect x="226" y="204" width="5" height="5"></rect><rect x="266" y="204" width="5" height="5"></rect><rect x="301" y="204" width="10" height="5"></rect><rect x="336" y="204" width="15" height="5"></rect><rect x="386" y="204" width="20" height="5"></rect><rect x="61" y="209" width="10" height="5"></rect><rect x="176" y="209" width="5" height="5"></rect><rect x="186" y="209" width="5" height="5"></rect><rect x="196" y="209" width="5" height="5"></rect><rect x="226" y="209" width="5" height="5"></rect><rect x="246" y="209" width="5" height="5"></rect><rect x="271" y="209" width="5" height="5"></rect><rect x="296" y="209" width="20" height="5"></rect><rect x="326" y="209" width="15" height="5"></rect><rect x="401" y="209" width="10" height="5"></rect><rect x="61" y="214" width="5" height="5"></rect><rect x="131" y="214" width="55" height="5"></rect><rect x="191" y="214" width="5" height="5"></rect><rect x="221" y="214" width="5" height="5"></rect><rect x="251" y="214" width="5" height="5"></rect><rect x="291" y="214" width="5" height="5"></rect><rect x="311" y="214" width="20" height="5"></rect><rect x="406" y="214" width="5" height="5"></rect><rect x="61" y="219" width="5" height="5"></rect><rect x="121" y="219" width="10" height="5"></rect><rect x="176" y="219" width="20" height="5"></rect><rect x="221" y="219" width="5" height="5"></rect><rect x="256" y="219" width="5" height="5"></rect><rect x="281" y="219" width="10" height="5"></rect><rect x="311" y="219" width="10" height="5"></rect><rect x="386" y="219" width="25" height="5"></rect><rect x="116" y="224" width="5" height="5"></rect><rect x="136" y="224" width="35" height="5"></rect><rect x="186" y="224" width="5" height="5"></rect><rect x="221" y="224" width="5" height="5"></rect><rect x="276" y="224" width="5" height="5"></rect><rect x="306" y="224" width="5" height="5"></rect><rect x="371" y="224" width="40" height="5"></rect><rect x="111" y="229" width="5" height="5"></rect><rect x="126" y="229" width="10" height="5"></rect><rect x="171" y="229" width="10" height="5"></rect><rect x="191" y="229" width="5" height="5"></rect><rect x="226" y="229" width="5" height="5"></rect><rect x="266" y="229" width="10" height="5"></rect><rect x="296" y="229" width="10" height="5"></rect><rect x="361" y="229" width="45" height="5"></rect><rect x="106" y="234" width="5" height="5"></rect><rect x="121" y="234" width="5" height="5"></rect><rect x="181" y="234" width="5" height="5"></rect><rect x="196" y="234" width="5" height="5"></rect><rect x="231" y="234" width="5" height="5"></rect><rect x="256" y="234" width="10" height="5"></rect><rect x="291" y="234" width="5" height="5"></rect><rect x="351" y="234" width="50" height="5"></rect><rect x="101" y="239" width="5" height="5"></rect><rect x="116" y="239" width="5" height="5"></rect><rect x="141" y="239" width="25" height="5"></rect><rect x="186" y="239" width="5" height="5"></rect><rect x="201" y="239" width="5" height="5"></rect><rect x="236" y="239" width="20" height="5"></rect><rect x="281" y="239" width="10" height="5"></rect><rect x="346" y="239" width="50" height="5"></rect><rect x="101" y="244" width="5" height="5"></rect><rect x="111" y="244" width="5" height="5"></rect><rect x="131" y="244" width="45" height="5"></rect><rect x="191" y="244" width="5" height="5"></rect><rect x="201" y="244" width="5" height="5"></rect><rect x="276" y="244" width="5" height="5"></rect><rect x="341" y="244" width="50" height="5"></rect><rect x="96" y="249" width="5" height="5"></rect><rect x="111" y="249" width="5" height="5"></rect><rect x="126" y="249" width="55" height="5"></rect><rect x="191" y="249" width="5" height="5"></rect><rect x="206" y="249" width="5" height="5"></rect><rect x="266" y="249" width="10" height="5"></rect><rect x="336" y="249" width="50" height="5"></rect><rect x="96" y="254" width="5" height="5"></rect><rect x="106" y="254" width="5" height="5"></rect><rect x="126" y="254" width="55" height="5"></rect><rect x="196" y="254" width="5" height="5"></rect><rect x="206" y="254" width="5" height="5"></rect><rect x="261" y="254" width="5" height="5"></rect><rect x="331" y="254" width="50" height="5"></rect><rect x="96" y="259" width="5" height="5"></rect><rect x="106" y="259" width="5" height="5"></rect><rect x="121" y="259" width="20" height="5"></rect><rect x="151" y="259" width="35" height="5"></rect><rect x="196" y="259" width="5" height="5"></rect><rect x="206" y="259" width="5" height="5"></rect><rect x="251" y="259" width="10" height="5"></rect><rect x="326" y="259" width="50" height="5"></rect><rect x="96" y="264" width="5" height="5"></rect><rect x="106" y="264" width="5" height="5"></rect><rect x="121" y="264" width="20" height="5"></rect><rect x="151" y="264" width="35" height="5"></rect><rect x="196" y="264" width="5" height="5"></rect><rect x="206" y="264" width="5" height="5"></rect><rect x="241" y="264" width="10" height="5"></rect><rect x="321" y="264" width="50" height="5"></rect><rect x="96" y="269" width="5" height="5"></rect><rect x="106" y="269" width="5" height="5"></rect><rect x="121" y="269" width="65" height="5"></rect><rect x="196" y="269" width="5" height="5"></rect><rect x="206" y="269" width="5" height="5"></rect><rect x="231" y="269" width="10" height="5"></rect><rect x="316" y="269" width="50" height="5"></rect><rect x="96" y="274" width="5" height="5"></rect><rect x="106" y="274" width="5" height="5"></rect><rect x="121" y="274" width="65" height="5"></rect><rect x="196" y="274" width="5" height="5"></rect><rect x="206" y="274" width="5" height="5"></rect><rect x="221" y="274" width="10" height="5"></rect><rect x="311" y="274" width="50" height="5"></rect><rect x="96" y="279" width="5" height="5"></rect><rect x="106" y="279" width="5" height="5"></rect><rect x="121" y="279" width="65" height="5"></rect><rect x="196" y="279" width="5" height="5"></rect><rect x="206" y="279" width="15" height="5"></rect><rect x="306" y="279" width="50" height="5"></rect><rect x="81" y="284" width="5" height="5"></rect><rect x="91" y="284" width="10" height="5"></rect><rect x="106" y="284" width="5" height="5"></rect><rect x="126" y="284" width="65" height="5"></rect><rect x="196" y="284" width="5" height="5"></rect><rect x="301" y="284" width="50" height="5"></rect><rect x="76" y="289" width="5" height="5"></rect><rect x="86" y="289" width="5" height="5"></rect><rect x="96" y="289" width="5" height="5"></rect><rect x="111" y="289" width="5" height="5"></rect><rect x="126" y="289" width="35" height="5"></rect><rect x="191" y="289" width="10" height="5"></rect><rect x="296" y="289" width="50" height="5"></rect><rect x="71" y="294" width="5" height="5"></rect><rect x="81" y="294" width="5" height="5"></rect><rect x="91" y="294" width="5" height="5"></rect><rect x="101" y="294" width="5" height="5"></rect><rect x="111" y="294" width="5" height="5"></rect><rect x="131" y="294" width="15" height="5"></rect><rect x="291" y="294" width="50" height="5"></rect><rect x="66" y="299" width="5" height="5"></rect><rect x="76" y="299" width="5" height="5"></rect><rect x="86" y="299" width="5" height="5"></rect><rect x="96" y="299" width="10" height="5"></rect><rect x="116" y="299" width="5" height="5"></rect><rect x="131" y="299" width="5" height="5"></rect><rect x="286" y="299" width="50" height="5"></rect><rect x="71" y="304" width="5" height="5"></rect><rect x="81" y="304" width="5" height="5"></rect><rect x="91" y="304" width="5" height="5"></rect><rect x="101" y="304" width="10" height="5"></rect><rect x="121" y="304" width="10" height="5"></rect><rect x="281" y="304" width="50" height="5"></rect><rect x="66" y="309" width="5" height="5"></rect><rect x="76" y="309" width="5" height="5"></rect><rect x="86" y="309" width="5" height="5"></rect><rect x="96" y="309" width="5" height="5"></rect><rect x="106" y="309" width="10" height="5"></rect><rect x="121" y="309" width="10" height="5"></rect><rect x="276" y="309" width="140" height="5"></rect><rect x="71" y="314" width="5" height="5"></rect><rect x="81" y="314" width="5" height="5"></rect><rect x="91" y="314" width="5" height="5"></rect><rect x="101" y="314" width="5" height="5"></rect><rect x="111" y="314" width="15" height="5"></rect><rect x="271" y="314" width="20" height="5"></rect><rect x="326" y="314" width="20" height="5"></rect><rect x="406" y="314" width="15" height="5"></rect><rect x="66" y="319" width="5" height="5"></rect><rect x="76" y="319" width="5" height="5"></rect><rect x="86" y="319" width="5" height="5"></rect><rect x="96" y="319" width="5" height="5"></rect><rect x="106" y="319" width="5" height="5"></rect><rect x="116" y="319" width="10" height="5"></rect><rect x="266" y="319" width="20" height="5"></rect><rect x="346" y="319" width="10" height="5"></rect><rect x="396" y="319" width="10" height="5"></rect><rect x="416" y="319" width="5" height="5"></rect><rect x="71" y="324" width="5" height="5"></rect><rect x="81" y="324" width="5" height="5"></rect><rect x="91" y="324" width="5" height="5"></rect><rect x="101" y="324" width="5" height="5"></rect><rect x="111" y="324" width="5" height="5"></rect><rect x="121" y="324" width="5" height="5"></rect><rect x="256" y="324" width="25" height="5"></rect><rect x="356" y="324" width="10" height="5"></rect><rect x="381" y="324" width="15" height="5"></rect><rect x="416" y="324" width="5" height="5"></rect><rect x="76" y="329" width="5" height="5"></rect><rect x="86" y="329" width="5" height="5"></rect><rect x="96" y="329" width="5" height="5"></rect><rect x="106" y="329" width="5" height="5"></rect><rect x="191" y="329" width="5" height="5"></rect><rect x="246" y="329" width="30" height="5"></rect><rect x="361" y="329" width="20" height="5"></rect><rect x="416" y="329" width="5" height="5"></rect><rect x="81" y="334" width="5" height="5"></rect><rect x="91" y="334" width="5" height="5"></rect><rect x="101" y="334" width="5" height="5"></rect><rect x="196" y="334" width="10" height="5"></rect><rect x="231" y="334" width="45" height="5"></rect><rect x="336" y="334" width="25" height="5"></rect><rect x="411" y="334" width="10" height="5"></rect><rect x="206" y="339" width="130" height="5"></rect><rect x="406" y="339" width="10" height="5"></rect><rect x="401" y="344" width="10" height="5"></rect><rect x="396" y="349" width="10" height="5"></rect><rect x="386" y="354" width="15" height="5"></rect><rect x="371" y="359" width="20" height="5"></rect><rect x="356" y="364" width="20" height="5"></rect><rect x="341" y="369" width="20" height="5"></rect><rect x="321" y="374" width="25" height="5"></rect><rect x="301" y="379" width="25" height="5"></rect><rect x="286" y="384" width="40" height="5"></rect><rect x="276" y="389" width="45" height="5"></rect><rect x="266" y="394" width="55" height="5"></rect><rect x="266" y="399" width="5" height="5"></rect><rect x="276" y="399" width="45" height="5"></rect><rect x="271" y="404" width="5" height="5"></rect><rect x="281" y="404" width="5" height="5"></rect><rect x="291" y="404" width="30" height="5"></rect><rect x="276" y="409" width="5" height="5"></rect><rect x="286" y="409" width="5" height="5"></rect><rect x="296" y="409" width="5" height="5"></rect><rect x="306" y="409" width="20" height="5"></rect><rect x="281" y="414" width="5" height="5"></rect><rect x="291" y="414" width="5" height="5"></rect><rect x="301" y="414" width="5" height="5"></rect><rect x="311" y="414" width="15" height="5"></rect><rect x="296" y="419" width="5" height="5"></rect><rect x="306" y="419" width="5" height="5"></rect><rect x="316" y="419" width="10" height="5"></rect></symbol>

    <filter id="flipper-glow" x="-20%" y="-20%" width="140%" height="140%">
      <feGaussianBlur stdDeviation="8" result="b1"></feGaussianBlur>
      <feGaussianBlur stdDeviation="18" result="b2" in="SourceGraphic"></feGaussianBlur>
      <feMerge>
        <feMergeNode in="b2"></feMergeNode>
        <feMergeNode in="b1"></feMergeNode>
        <feMergeNode in="SourceGraphic"></feMergeNode>
      </feMerge>
    </filter>

    <pattern id="flipper-scan" x="0" y="0" width="552" height="6" patternUnits="userSpaceOnUse">
      <rect x="0" y="0" width="552" height="3" fill="rgba(0,0,0,0.35)"></rect>
    </pattern>

    <filter id="flipper-grain" x="0" y="0" width="100%" height="100%">
      <feTurbulence type="fractalNoise" baseFrequency="0.9" numOctaves="2" seed="7"></feTurbulence>
      <feColorMatrix values="0 0 0 0 1   0 0 0 0 1   0 0 0 0 1   0 0 0 0.12 0"></feColorMatrix>
    </filter>
  </defs>

  <rect width="552" height="552" fill="#04060a"></rect>

  <g opacity="0.55" filter="url(#flipper-glow)">
    <use href="#flipper-px" fill="#f5331c"></use>
  </g>

  <use href="#flipper-px" fill="#ff2bd6" transform="translate(6 0)" opacity="0.6"></use>
  <use href="#flipper-px" fill="#00f0ff" transform="translate(-6 0)" opacity="0.6"></use>

  <use href="#flipper-px" fill="#f5331c"></use>

  <g opacity="0.4">
    <use href="#flipper-px" fill="#f5331c" transform="translate(3 0)" clip-path="inset(38% 0 56% 0)"></use>
    <use href="#flipper-px" fill="#f5331c" transform="translate(-2 0)" clip-path="inset(72% 0 22% 0)"></use>
  </g>

  <rect width="552" height="552" fill="url(#flipper-scan)" opacity="0.55"></rect>
  <rect width="552" height="552" filter="url(#flipper-grain)" opacity="0.45"></rect>
</svg>