<svg xmlns="http://www.w3.org/2000/svg" viewBox="0 0 552 552" width="552" height="552" shape-rendering="crispEdges">
  <defs>
    <symbol id="mills-px" overflow="visible"><rect x="220" y="192" width="28" height="28"></rect><rect x="276" y="192" width="28" height="28"></rect><rect x="332" y="192" width="28" height="28"></rect><rect x="276" y="220" width="28" height="28"></rect><rect x="332" y="220" width="28" height="28"></rect><rect x="52" y="248" width="28" height="28"></rect><rect x="80" y="248" width="28" height="28"></rect><rect x="136" y="248" width="28" height="28"></rect><rect x="164" y="248" width="28" height="28"></rect><rect x="220" y="248" width="28" height="28"></rect><rect x="276" y="248" width="28" height="28"></rect><rect x="332" y="248" width="28" height="28"></rect><rect x="388" y="248" width="28" height="28"></rect><rect x="416" y="248" width="28" height="28"></rect><rect x="444" y="248" width="28" height="28"></rect><rect x="52" y="276" width="28" height="28"></rect><rect x="80" y="276" width="28" height="28"></rect><rect x="108" y="276" width="28" height="28"></rect><rect x="136" y="276" width="28" height="28"></rect><rect x="164" y="276" width="28" height="28"></rect><rect x="220" y="276" width="28" height="28"></rect><rect x="276" y="276" width="28" height="28"></rect><rect x="332" y="276" width="28" height="28"></rect><rect x="388" y="276" width="28" height="28"></rect><rect x="52" y="304" width="28" height="28"></rect><rect x="108" y="304" width="28" height="28"></rect><rect x="164" y="304" width="28" height="28"></rect><rect x="220" y="304" width="28" height="28"></rect><rect x="276" y="304" width="28" height="28"></rect><rect x="332" y="304" width="28" height="28"></rect><rect x="388" y="304" width="28" height="28"></rect><rect x="416" y="304" width="28" height="28"></rect><rect x="444" y="304" width="28" height="28"></rect><rect x="52" y="332" width="28" height="28"></rect><rect x="108" y="332" width="28" height="28"></rect><rect x="164" y="332" width="28" height="28"></rect><rect x="220" y="332" width="28" height="28"></rect><rect x="276" y="332" width="28" height="28"></rect><rect x="332" y="332" width="28" height="28"></rect><rect x="444" y="332" width="28" height="28"></rect><rect x="52" y="360" width="28" height="28"></rect><rect x="108" y="360" width="28" height="28"></rect><rect x="164" y="360" width="28" height="28"></rect><rect x="220" y="360" width="28" height="28"></rect><rect x="276" y="360" width="28" height="28"></rect><rect x="332" y="360" width="28" height="28"></rect><rect x="388" y="360" width="28" height="28"></rect><rect x="416" y="360" width="28" height="28"></rect><rect x="444" y="360" width="28" height="28"></rect></symbol>
    
    

    <filter id="mills-glow" x="-20%" y="-20%" width="140%" height="140%">
      <feGaussianBlur stdDeviation="8" result="b1"></feGaussianBlur>
      <feGaussianBlur stdDeviation="18" result="b2" in="SourceGraphic"></feGaussianBlur>
      <feMerge>
        <feMergeNode in="b2"></feMergeNode>
        <feMergeNode in="b1"></feMergeNode>
        <feMergeNode in="SourceGraphic"></feMergeNode>
      </feMerge>
    </filter>

    

    <pattern id="mills-scan" x="0" y="0" width="552" height="6" patternUnits="userSpaceOnUse">
      <rect x="0" y="0" width="552" height="3" fill="rgba(0,0,0,0.35)"></rect>
    </pattern>

    <filter id="mills-grain" x="0" y="0" width="100%" height="100%">
      <feTurbulence type="fractalNoise" baseFrequency="0.9" numOctaves="2" seed="5"></feTurbulence>
      <feColorMatrix values="0 0 0 0 1   0 0 0 0 1   0 0 0 0 1   0 0 0 0.12 0"></feColorMatrix>
    </filter>
  </defs>

  <rect width="552" height="552" fill="#04060a"></rect>

  
  <g opacity="0.55" filter="url(#mills-glow)">
    <use href="#mills-px" fill="#00f0ff"></use>
  </g>

  
  <use href="#mills-px" fill="#ff2bd6" transform="translate(6 0)" opacity="0.6"></use>
  <use href="#mills-px" fill="#39ff14" transform="translate(-6 0)" opacity="0.6"></use>

  
  

  
  <use href="#mills-px" fill="#00f0ff"></use>

  
  

  
  <g opacity="0.4">
    <use href="#mills-px" fill="#00f0ff" transform="translate(3 0)" clip-path="inset(38% 0 56% 0)"></use>
    <use href="#mills-px" fill="#00f0ff" transform="translate(-2 0)" clip-path="inset(72% 0 22% 0)"></use>
  </g>

  <rect width="552" height="552" fill="url(#mills-scan)" opacity="0.55"></rect>
  <rect width="552" height="552" filter="url(#mills-grain)" opacity="0.45"></rect>
</svg>