<svg xmlns="http://www.w3.org/2000/svg" viewBox="0 0 552 552" width="552" height="552" shape-rendering="crispEdges">
  <defs>
    <symbol id="protonmail-px" overflow="visible"><rect x="24" y="108" width="28" height="28"></rect><rect x="52" y="108" width="28" height="28"></rect><rect x="80" y="108" width="28" height="28"></rect><rect x="108" y="108" width="28" height="28"></rect><rect x="136" y="108" width="28" height="28"></rect><rect x="164" y="108" width="28" height="28"></rect><rect x="192" y="108" width="28" height="28"></rect><rect x="220" y="108" width="28" height="28"></rect><rect x="248" y="108" width="28" height="28"></rect><rect x="276" y="108" width="28" height="28"></rect><rect x="304" y="108" width="28" height="28"></rect><rect x="332" y="108" width="28" height="28"></rect><rect x="360" y="108" width="28" height="28"></rect><rect x="388" y="108" width="28" height="28"></rect><rect x="416" y="108" width="28" height="28"></rect><rect x="444" y="108" width="28" height="28"></rect><rect x="472" y="108" width="28" height="28"></rect><rect x="500" y="108" width="28" height="28"></rect><rect x="24" y="136" width="28" height="28"></rect><rect x="52" y="136" width="28" height="28"></rect><rect x="80" y="136" width="28" height="28"></rect><rect x="108" y="136" width="28" height="28"></rect><rect x="136" y="136" width="28" height="28"></rect><rect x="164" y="136" width="28" height="28"></rect><rect x="192" y="136" width="28" height="28"></rect><rect x="220" y="136" width="28" height="28"></rect><rect x="248" y="136" width="28" height="28"></rect><rect x="276" y="136" width="28" height="28"></rect><rect x="304" y="136" width="28" height="28"></rect><rect x="332" y="136" width="28" height="28"></rect><rect x="360" y="136" width="28" height="28"></rect><rect x="388" y="136" width="28" height="28"></rect><rect x="416" y="136" width="28" height="28"></rect><rect x="444" y="136" width="28" height="28"></rect><rect x="472" y="136" width="28" height="28"></rect><rect x="500" y="136" width="28" height="28"></rect><rect x="24" y="164" width="28" height="28"></rect><rect x="52" y="164" width="28" height="28"></rect><rect x="80" y="164" width="28" height="28"></rect><rect x="108" y="164" width="28" height="28"></rect><rect x="136" y="164" width="28" height="28"></rect><rect x="164" y="164" width="28" height="28"></rect><rect x="192" y="164" width="28" height="28"></rect><rect x="220" y="164" width="28" height="28"></rect><rect x="248" y="164" width="28" height="28"></rect><rect x="276" y="164" width="28" height="28"></rect><rect x="304" y="164" width="28" height="28"></rect><rect x="332" y="164" width="28" height="28"></rect><rect x="360" y="164" width="28" height="28"></rect><rect x="388" y="164" width="28" height="28"></rect><rect x="416" y="164" width="28" height="28"></rect><rect x="444" y="164" width="28" height="28"></rect><rect x="472" y="164" width="28" height="28"></rect><rect x="500" y="164" width="28" height="28"></rect><rect x="24" y="192" width="28" height="28"></rect><rect x="52" y="192" width="28" height="28"></rect><rect x="80" y="192" width="28" height="28"></rect><rect x="108" y="192" width="28" height="28"></rect><rect x="136" y="192" width="28" height="28"></rect><rect x="164" y="192" width="28" height="28"></rect><rect x="192" y="192" width="28" height="28"></rect><rect x="220" y="192" width="28" height="28"></rect><rect x="248" y="192" width="28" height="28"></rect><rect x="276" y="192" width="28" height="28"></rect><rect x="304" y="192" width="28" height="28"></rect><rect x="332" y="192" width="28" height="28"></rect><rect x="360" y="192" width="28" height="28"></rect><rect x="388" y="192" width="28" height="28"></rect><rect x="416" y="192" width="28" height="28"></rect><rect x="444" y="192" width="28" height="28"></rect><rect x="472" y="192" width="28" height="28"></rect><rect x="500" y="192" width="28" height="28"></rect><rect x="24" y="220" width="28" height="28"></rect><rect x="52" y="220" width="28" height="28"></rect><rect x="80" y="220" width="28" height="28"></rect><rect x="108" y="220" width="28" height="28"></rect><rect x="136" y="220" width="28" height="28"></rect><rect x="164" y="220" width="28" height="28"></rect><rect x="192" y="220" width="28" height="28"></rect><rect x="220" y="220" width="28" height="28"></rect><rect x="248" y="220" width="28" height="28"></rect><rect x="276" y="220" width="28" height="28"></rect><rect x="304" y="220" width="28" height="28"></rect><rect x="332" y="220" width="28" height="28"></rect><rect x="360" y="220" width="28" height="28"></rect><rect x="388" y="220" width="28" height="28"></rect><rect x="416" y="220" width="28" height="28"></rect><rect x="444" y="220" width="28" height="28"></rect><rect x="472" y="220" width="28" height="28"></rect><rect x="500" y="220" width="28" height="28"></rect><rect x="24" y="248" width="28" height="28"></rect><rect x="52" y="248" width="28" height="28"></rect><rect x="80" y="248" width="28" height="28"></rect><rect x="108" y="248" width="28" height="28"></rect><rect x="136" y="248" width="28" height="28"></rect><rect x="164" y="248" width="28" height="28"></rect><rect x="192" y="248" width="28" height="28"></rect><rect x="220" y="248" width="28" height="28"></rect><rect x="248" y="248" width="28" height="28"></rect><rect x="276" y="248" width="28" height="28"></rect><rect x="304" y="248" width="28" height="28"></rect><rect x="332" y="248" width="28" height="28"></rect><rect x="360" y="248" width="28" height="28"></rect><rect x="388" y="248" width="28" height="28"></rect><rect x="416" y="248" width="28" height="28"></rect><rect x="444" y="248" width="28" height="28"></rect><rect x="472" y="248" width="28" height="28"></rect><rect x="500" y="248" width="28" height="28"></rect><rect x="24" y="276" width="28" height="28"></rect><rect x="52" y="276" width="28" height="28"></rect><rect x="80" y="276" width="28" height="28"></rect><rect x="108" y="276" width="28" height="28"></rect><rect x="136" y="276" width="28" height="28"></rect><rect x="164" y="276" width="28" height="28"></rect><rect x="192" y="276" width="28" height="28"></rect><rect x="220" y="276" width="28" height="28"></rect><rect x="248" y="276" width="28" height="28"></rect><rect x="276" y="276" width="28" height="28"></rect><rect x="304" y="276" width="28" height="28"></rect><rect x="332" y="276" width="28" height="28"></rect><rect x="360" y="276" width="28" height="28"></rect><rect x="388" y="276" width="28" height="28"></rect><rect x="416" y="276" width="28" height="28"></rect><rect x="444" y="276" width="28" height="28"></rect><rect x="472" y="276" width="28" height="28"></rect><rect x="500" y="276" width="28" height="28"></rect><rect x="24" y="304" width="28" height="28"></rect><rect x="52" y="304" width="28" height="28"></rect><rect x="80" y="304" width="28" height="28"></rect><rect x="108" y="304" width="28" height="28"></rect><rect x="136" y="304" width="28" height="28"></rect><rect x="164" y="304" width="28" height="28"></rect><rect x="192" y="304" width="28" height="28"></rect><rect x="220" y="304" width="28" height="28"></rect><rect x="248" y="304" width="28" height="28"></rect><rect x="276" y="304" width="28" height="28"></rect><rect x="304" y="304" width="28" height="28"></rect><rect x="332" y="304" width="28" height="28"></rect><rect x="360" y="304" width="28" height="28"></rect><rect x="388" y="304" width="28" height="28"></rect><rect x="416" y="304" width="28" height="28"></rect><rect x="444" y="304" width="28" height="28"></rect><rect x="472" y="304" width="28" height="28"></rect><rect x="500" y="304" width="28" height="28"></rect><rect x="24" y="332" width="28" height="28"></rect><rect x="52" y="332" width="28" height="28"></rect><rect x="80" y="332" width="28" height="28"></rect><rect x="108" y="332" width="28" height="28"></rect><rect x="136" y="332" width="28" height="28"></rect><rect x="164" y="332" width="28" height="28"></rect><rect x="192" y="332" width="28" height="28"></rect><rect x="220" y="332" width="28" height="28"></rect><rect x="248" y="332" width="28" height="28"></rect><rect x="276" y="332" width="28" height="28"></rect><rect x="304" y="332" width="28" height="28"></rect><rect x="332" y="332" width="28" height="28"></rect><rect x="360" y="332" width="28" height="28"></rect><rect x="388" y="332" width="28" height="28"></rect><rect x="416" y="332" width="28" height="28"></rect><rect x="444" y="332" width="28" height="28"></rect><rect x="472" y="332" width="28" height="28"></rect><rect x="500" y="332" width="28" height="28"></rect><rect x="24" y="360" width="28" height="28"></rect><rect x="52" y="360" width="28" height="28"></rect><rect x="80" y="360" width="28" height="28"></rect><rect x="108" y="360" width="28" height="28"></rect><rect x="136" y="360" width="28" height="28"></rect><rect x="164" y="360" width="28" height="28"></rect><rect x="192" y="360" width="28" height="28"></rect><rect x="220" y="360" width="28" height="28"></rect><rect x="248" y="360" width="28" height="28"></rect><rect x="276" y="360" width="28" height="28"></rect><rect x="304" y="360" width="28" height="28"></rect><rect x="332" y="360" width="28" height="28"></rect><rect x="360" y="360" width="28" height="28"></rect><rect x="388" y="360" width="28" height="28"></rect><rect x="416" y="360" width="28" height="28"></rect><rect x="444" y="360" width="28" height="28"></rect><rect x="472" y="360" width="28" height="28"></rect><rect x="500" y="360" width="28" height="28"></rect><rect x="24" y="388" width="28" height="28"></rect><rect x="52" y="388" width="28" height="28"></rect><rect x="80" y="388" width="28" height="28"></rect><rect x="108" y="388" width="28" height="28"></rect><rect x="136" y="388" width="28" height="28"></rect><rect x="164" y="388" width="28" height="28"></rect><rect x="192" y="388" width="28" height="28"></rect><rect x="220" y="388" width="28" height="28"></rect><rect x="248" y="388" width="28" height="28"></rect><rect x="276" y="388" width="28" height="28"></rect><rect x="304" y="388" width="28" height="28"></rect><rect x="332" y="388" width="28" height="28"></rect><rect x="360" y="388" width="28" height="28"></rect><rect x="388" y="388" width="28" height="28"></rect><rect x="416" y="388" width="28" height="28"></rect><rect x="444" y="388" width="28" height="28"></rect><rect x="472" y="388" width="28" height="28"></rect><rect x="500" y="388" width="28" height="28"></rect><rect x="24" y="416" width="28" height="28"></rect><rect x="52" y="416" width="28" height="28"></rect><rect x="80" y="416" width="28" height="28"></rect><rect x="108" y="416" width="28" height="28"></rect><rect x="136" y="416" width="28" height="28"></rect><rect x="164" y="416" width="28" height="28"></rect><rect x="192" y="416" width="28" height="28"></rect><rect x="220" y="416" width="28" height="28"></rect><rect x="248" y="416" width="28" height="28"></rect><rect x="276" y="416" width="28" height="28"></rect><rect x="304" y="416" width="28" height="28"></rect><rect x="332" y="416" width="28" height="28"></rect><rect x="360" y="416" width="28" height="28"></rect><rect x="388" y="416" width="28" height="28"></rect><rect x="416" y="416" width="28" height="28"></rect><rect x="444" y="416" width="28" height="28"></rect><rect x="472" y="416" width="28" height="28"></rect><rect x="500" y="416" width="28" height="28"></rect></symbol>
    
    <symbol id="protonmail-flapedge-px" overflow="visible"><rect x="24" y="108" width="28" height="28"></rect><rect x="52" y="108" width="28" height="28"></rect><rect x="80" y="108" width="28" height="28"></rect><rect x="444" y="108" width="28" height="28"></rect><rect x="472" y="108" width="28" height="28"></rect><rect x="500" y="108" width="28" height="28"></rect><rect x="52" y="136" width="28" height="28"></rect><rect x="80" y="136" width="28" height="28"></rect><rect x="108" y="136" width="28" height="28"></rect><rect x="416" y="136" width="28" height="28"></rect><rect x="444" y="136" width="28" height="28"></rect><rect x="472" y="136" width="28" height="28"></rect><rect x="80" y="164" width="28" height="28"></rect><rect x="108" y="164" width="28" height="28"></rect><rect x="136" y="164" width="28" height="28"></rect><rect x="388" y="164" width="28" height="28"></rect><rect x="416" y="164" width="28" height="28"></rect><rect x="444" y="164" width="28" height="28"></rect><rect x="108" y="192" width="28" height="28"></rect><rect x="136" y="192" width="28" height="28"></rect><rect x="164" y="192" width="28" height="28"></rect><rect x="360" y="192" width="28" height="28"></rect><rect x="388" y="192" width="28" height="28"></rect><rect x="416" y="192" width="28" height="28"></rect><rect x="136" y="220" width="28" height="28"></rect><rect x="164" y="220" width="28" height="28"></rect><rect x="192" y="220" width="28" height="28"></rect><rect x="332" y="220" width="28" height="28"></rect><rect x="360" y="220" width="28" height="28"></rect><rect x="388" y="220" width="28" height="28"></rect><rect x="164" y="248" width="28" height="28"></rect><rect x="192" y="248" width="28" height="28"></rect><rect x="220" y="248" width="28" height="28"></rect><rect x="304" y="248" width="28" height="28"></rect><rect x="332" y="248" width="28" height="28"></rect><rect x="360" y="248" width="28" height="28"></rect><rect x="192" y="276" width="28" height="28"></rect><rect x="220" y="276" width="28" height="28"></rect><rect x="248" y="276" width="28" height="28"></rect><rect x="276" y="276" width="28" height="28"></rect><rect x="304" y="276" width="28" height="28"></rect><rect x="332" y="276" width="28" height="28"></rect></symbol>

    <filter id="protonmail-glow" x="-20%" y="-20%" width="140%" height="140%">
      <feGaussianBlur stdDeviation="8" result="b1"></feGaussianBlur>
      <feGaussianBlur stdDeviation="18" result="b2" in="SourceGraphic"></feGaussianBlur>
      <feMerge>
        <feMergeNode in="b2"></feMergeNode>
        <feMergeNode in="b1"></feMergeNode>
        <feMergeNode in="SourceGraphic"></feMergeNode>
      </feMerge>
    </filter>

    <filter id="protonmail-edgeglow" x="-60%" y="-60%" width="220%" height="220%">
      <feGaussianBlur stdDeviation="3" result="e1"></feGaussianBlur>
      <feGaussianBlur stdDeviation="9" result="e2" in="SourceGraphic"></feGaussianBlur>
      <feGaussianBlur stdDeviation="20" result="e3" in="SourceGraphic"></feGaussianBlur>
      <feMerge>
        <feMergeNode in="e3"></feMergeNode>
        <feMergeNode in="e2"></feMergeNode>
        <feMergeNode in="e1"></feMergeNode>
        <feMergeNode in="SourceGraphic"></feMergeNode>
      </feMerge>
    </filter>

    <pattern id="protonmail-scan" x="0" y="0" width="552" height="6" patternUnits="userSpaceOnUse">
      <rect x="0" y="0" width="552" height="3" fill="rgba(0,0,0,0.35)"></rect>
    </pattern>

    <filter id="protonmail-grain" x="0" y="0" width="100%" height="100%">
      <feTurbulence type="fractalNoise" baseFrequency="0.9" numOctaves="2" seed="10"></feTurbulence>
      <feColorMatrix values="0 0 0 0 1   0 0 0 0 1   0 0 0 0 1   0 0 0 0.12 0"></feColorMatrix>
    </filter>
  </defs>

  <rect width="552" height="552" fill="#04060a"></rect>

  
  <g opacity="0.55" filter="url(#protonmail-glow)">
    <use href="#protonmail-px" fill="#6d4aff"></use>
  </g>

  
  <use href="#protonmail-px" fill="#b066ff" transform="translate(6 0)" opacity="0.6"></use>
  <use href="#protonmail-px" fill="#00f0ff" transform="translate(-6 0)" opacity="0.6"></use>

  
  

  
  <use href="#protonmail-px" fill="#6d4aff"></use>

  
  
  <g filter="url(#protonmail-edgeglow)">
    <use href="#protonmail-flapedge-px" fill="#8a6bff"></use>
  </g>
  <use href="#protonmail-flapedge-px" fill="#cbb8ff"></use>
  

  
  <g opacity="0.4">
    <use href="#protonmail-px" fill="#6d4aff" transform="translate(3 0)" clip-path="inset(38% 0 56% 0)"></use>
    <use href="#protonmail-px" fill="#6d4aff" transform="translate(-2 0)" clip-path="inset(72% 0 22% 0)"></use>
  </g>

  <rect width="552" height="552" fill="url(#protonmail-scan)" opacity="0.55"></rect>
  <rect width="552" height="552" filter="url(#protonmail-grain)" opacity="0.45"></rect>
</svg>