<svg xmlns="http://www.w3.org/2000/svg" viewBox="0 0 552 552" width="552" height="552" shape-rendering="crispEdges">
  <defs>
    <symbol id="unifi-px" overflow="visible"><rect x="108" y="52" width="28" height="28"></rect><rect x="136" y="52" width="28" height="28"></rect><rect x="164" y="52" width="28" height="28"></rect><rect x="192" y="52" width="28" height="28"></rect><rect x="360" y="52" width="28" height="28"></rect><rect x="388" y="52" width="28" height="28"></rect><rect x="108" y="80" width="28" height="28"></rect><rect x="136" y="80" width="28" height="28"></rect><rect x="164" y="80" width="28" height="28"></rect><rect x="192" y="80" width="28" height="28"></rect><rect x="304" y="80" width="28" height="28"></rect><rect x="332" y="80" width="28" height="28"></rect><rect x="108" y="108" width="28" height="28"></rect><rect x="136" y="108" width="28" height="28"></rect><rect x="164" y="108" width="28" height="28"></rect><rect x="192" y="108" width="28" height="28"></rect><rect x="360" y="108" width="28" height="28"></rect><rect x="388" y="108" width="28" height="28"></rect><rect x="444" y="108" width="28" height="28"></rect><rect x="472" y="108" width="28" height="28"></rect><rect x="108" y="136" width="28" height="28"></rect><rect x="136" y="136" width="28" height="28"></rect><rect x="164" y="136" width="28" height="28"></rect><rect x="192" y="136" width="28" height="28"></rect><rect x="248" y="136" width="28" height="28"></rect><rect x="276" y="136" width="28" height="28"></rect><rect x="108" y="164" width="28" height="28"></rect><rect x="136" y="164" width="28" height="28"></rect><rect x="164" y="164" width="28" height="28"></rect><rect x="192" y="164" width="28" height="28"></rect><rect x="360" y="164" width="28" height="28"></rect><rect x="388" y="164" width="28" height="28"></rect><rect x="416" y="164" width="28" height="28"></rect><rect x="444" y="164" width="28" height="28"></rect><rect x="108" y="192" width="28" height="28"></rect><rect x="136" y="192" width="28" height="28"></rect><rect x="164" y="192" width="28" height="28"></rect><rect x="192" y="192" width="28" height="28"></rect><rect x="304" y="192" width="28" height="28"></rect><rect x="332" y="192" width="28" height="28"></rect><rect x="360" y="192" width="28" height="28"></rect><rect x="388" y="192" width="28" height="28"></rect><rect x="108" y="220" width="28" height="28"></rect><rect x="136" y="220" width="28" height="28"></rect><rect x="164" y="220" width="28" height="28"></rect><rect x="192" y="220" width="28" height="28"></rect><rect x="304" y="220" width="28" height="28"></rect><rect x="332" y="220" width="28" height="28"></rect><rect x="360" y="220" width="28" height="28"></rect><rect x="388" y="220" width="28" height="28"></rect><rect x="108" y="248" width="28" height="28"></rect><rect x="136" y="248" width="28" height="28"></rect><rect x="164" y="248" width="28" height="28"></rect><rect x="192" y="248" width="28" height="28"></rect><rect x="304" y="248" width="28" height="28"></rect><rect x="332" y="248" width="28" height="28"></rect><rect x="360" y="248" width="28" height="28"></rect><rect x="388" y="248" width="28" height="28"></rect><rect x="108" y="276" width="28" height="28"></rect><rect x="136" y="276" width="28" height="28"></rect><rect x="164" y="276" width="28" height="28"></rect><rect x="192" y="276" width="28" height="28"></rect><rect x="304" y="276" width="28" height="28"></rect><rect x="332" y="276" width="28" height="28"></rect><rect x="360" y="276" width="28" height="28"></rect><rect x="388" y="276" width="28" height="28"></rect><rect x="108" y="304" width="28" height="28"></rect><rect x="136" y="304" width="28" height="28"></rect><rect x="164" y="304" width="28" height="28"></rect><rect x="192" y="304" width="28" height="28"></rect><rect x="304" y="304" width="28" height="28"></rect><rect x="332" y="304" width="28" height="28"></rect><rect x="360" y="304" width="28" height="28"></rect><rect x="388" y="304" width="28" height="28"></rect><rect x="108" y="332" width="28" height="28"></rect><rect x="136" y="332" width="28" height="28"></rect><rect x="164" y="332" width="28" height="28"></rect><rect x="192" y="332" width="28" height="28"></rect><rect x="304" y="332" width="28" height="28"></rect><rect x="332" y="332" width="28" height="28"></rect><rect x="360" y="332" width="28" height="28"></rect><rect x="388" y="332" width="28" height="28"></rect><rect x="108" y="360" width="28" height="28"></rect><rect x="136" y="360" width="28" height="28"></rect><rect x="164" y="360" width="28" height="28"></rect><rect x="192" y="360" width="28" height="28"></rect><rect x="304" y="360" width="28" height="28"></rect><rect x="332" y="360" width="28" height="28"></rect><rect x="360" y="360" width="28" height="28"></rect><rect x="388" y="360" width="28" height="28"></rect><rect x="108" y="388" width="28" height="28"></rect><rect x="136" y="388" width="28" height="28"></rect><rect x="164" y="388" width="28" height="28"></rect><rect x="192" y="388" width="28" height="28"></rect><rect x="304" y="388" width="28" height="28"></rect><rect x="332" y="388" width="28" height="28"></rect><rect x="360" y="388" width="28" height="28"></rect><rect x="388" y="388" width="28" height="28"></rect><rect x="108" y="416" width="28" height="28"></rect><rect x="136" y="416" width="28" height="28"></rect><rect x="164" y="416" width="28" height="28"></rect><rect x="192" y="416" width="28" height="28"></rect><rect x="220" y="416" width="28" height="28"></rect><rect x="276" y="416" width="28" height="28"></rect><rect x="304" y="416" width="28" height="28"></rect><rect x="332" y="416" width="28" height="28"></rect><rect x="360" y="416" width="28" height="28"></rect><rect x="388" y="416" width="28" height="28"></rect><rect x="136" y="444" width="28" height="28"></rect><rect x="164" y="444" width="28" height="28"></rect><rect x="192" y="444" width="28" height="28"></rect><rect x="220" y="444" width="28" height="28"></rect><rect x="248" y="444" width="28" height="28"></rect><rect x="276" y="444" width="28" height="28"></rect><rect x="304" y="444" width="28" height="28"></rect><rect x="332" y="444" width="28" height="28"></rect><rect x="360" y="444" width="28" height="28"></rect><rect x="388" y="444" width="28" height="28"></rect><rect x="164" y="472" width="28" height="28"></rect><rect x="192" y="472" width="28" height="28"></rect><rect x="220" y="472" width="28" height="28"></rect><rect x="248" y="472" width="28" height="28"></rect><rect x="276" y="472" width="28" height="28"></rect><rect x="304" y="472" width="28" height="28"></rect><rect x="332" y="472" width="28" height="28"></rect><rect x="360" y="472" width="28" height="28"></rect></symbol>
    
    

    <filter id="unifi-glow" x="-20%" y="-20%" width="140%" height="140%">
      <feGaussianBlur stdDeviation="8" result="b1"></feGaussianBlur>
      <feGaussianBlur stdDeviation="18" result="b2" in="SourceGraphic"></feGaussianBlur>
      <feMerge>
        <feMergeNode in="b2"></feMergeNode>
        <feMergeNode in="b1"></feMergeNode>
        <feMergeNode in="SourceGraphic"></feMergeNode>
      </feMerge>
    </filter>

    

    <pattern id="unifi-scan" x="0" y="0" width="552" height="6" patternUnits="userSpaceOnUse">
      <rect x="0" y="0" width="552" height="3" fill="rgba(0,0,0,0.35)"></rect>
    </pattern>

    <filter id="unifi-grain" x="0" y="0" width="100%" height="100%">
      <feTurbulence type="fractalNoise" baseFrequency="0.9" numOctaves="2" seed="5"></feTurbulence>
      <feColorMatrix values="0 0 0 0 1   0 0 0 0 1   0 0 0 0 1   0 0 0 0.12 0"></feColorMatrix>
    </filter>
  </defs>

  

  
  <g opacity="0.55" filter="url(#unifi-glow)">
    <use href="#unifi-px" fill="#00f0ff"></use>
  </g>

  
  <use href="#unifi-px" fill="#ff2bd6" transform="translate(6 0)" opacity="0.6"></use>
  <use href="#unifi-px" fill="#39ff14" transform="translate(-6 0)" opacity="0.6"></use>

  
  

  
  <use href="#unifi-px" fill="#00f0ff"></use>

  
  

  
  <g opacity="0.4">
    <use href="#unifi-px" fill="#00f0ff" transform="translate(3 0)" clip-path="inset(38% 0 56% 0)"></use>
    <use href="#unifi-px" fill="#00f0ff" transform="translate(-2 0)" clip-path="inset(72% 0 22% 0)"></use>
  </g>

  <rect width="552" height="552" fill="url(#unifi-scan)" opacity="0.55"></rect>
  <rect width="552" height="552" filter="url(#unifi-grain)" opacity="0.45"></rect>
</svg>