<svg xmlns="http://www.w3.org/2000/svg" viewBox="-14 -14 128 128" width="128" height="128">
  <defs>
    <g id="about-sil"><circle cx="50" cy="33" r="17"></circle><path d="M24 92 C24 67 39 56 50 56 C61 56 76 67 76 92 Z"></path></g>

      <linearGradient id="ab-body" x1="0" y1="0" x2="0" y2="1">
        <stop offset="0" stop-color="#1a294a"></stop>
        <stop offset="1" stop-color="#0b1530"></stop>
      </linearGradient>
    <filter id="about-glow" x="-40%" y="-40%" width="180%" height="180%">
      <feGaussianBlur stdDeviation="2.2" result="b1"></feGaussianBlur>
      <feGaussianBlur stdDeviation="4.6" in="SourceGraphic" result="b2"></feGaussianBlur>
      <feMerge><feMergeNode in="b2"></feMergeNode><feMergeNode in="b1"></feMergeNode></feMerge>
    </filter>
    <filter id="about-grain" x="-14" y="-14" width="128" height="128">
      <feTurbulence type="fractalNoise" baseFrequency="0.7" numOctaves="2" seed="34"></feTurbulence>
      <feColorMatrix values="0 0 0 0 1  0 0 0 0 1  0 0 0 0 1  0 0 0 0.55 0"></feColorMatrix>
    </filter>
    <pattern id="about-scan" x="0" y="0" width="4" height="2.6" patternUnits="userSpaceOnUse">
      <rect x="-1" y="0" width="6" height="1.3" fill="#000"></rect>
    </pattern>
    <clipPath id="about-clip"><circle cx="50" cy="33" r="17"></circle><path d="M24 92 C24 67 39 56 50 56 C61 56 76 67 76 92 Z"></path></clipPath>
  </defs>


  <g filter="url(#about-glow)" opacity="0.55"><use href="#about-sil" fill="#ff9ad8"></use></g>


  <use href="#about-sil" fill="#ff4fa8" transform="translate(2.6 0)" opacity="0.5"></use>
  <use href="#about-sil" fill="#00e5ff" transform="translate(-2.6 0)" opacity="0.5"></use>


  <g>
      <circle cx="50" cy="33" r="17" fill="url(#ab-body)" stroke="#ff77c8" stroke-width="3"></circle>
      <path d="M24 92 C24 67 39 56 50 56 C61 56 76 67 76 92 Z" fill="url(#ab-body)" stroke="#ff77c8" stroke-width="3"></path>
      <circle cx="50" cy="33" r="12.5" fill="none" stroke="#00e5ff" stroke-width="1.3" opacity="0.55"></circle>
      <path d="M33 90 C33 71 43 63 50 63 C57 63 67 71 67 90" fill="none" stroke="#00e5ff" stroke-width="1.3" opacity="0.55"></path></g>



  <g opacity="0.4">
    <use href="#about-sil" fill="#00e5ff" transform="translate(3 0)" style="clip-path: inset(28% 0 60% 0)"></use>
    <use href="#about-sil" fill="#ff4fa8" transform="translate(-2 0)" style="clip-path: inset(72% 0 18% 0)"></use>
  </g>


  <g clip-path="url(#about-clip)">
    <rect x="-14" y="-14" width="128" height="128" fill="url(#about-scan)" opacity="0.30"></rect>
    <rect x="-14" y="-14" width="128" height="128" filter="url(#about-grain)" opacity="0.10"></rect>
  </g>
</svg>
