<svg xmlns="http://www.w3.org/2000/svg" viewBox="-14 -14 128 128" width="128" height="128">
  <defs>
    <g id="display-sil"><path d="M10 16 h80 a4 4 0 0 1 4 4 v46 a4 4 0 0 1 -4 4 h-80 a4 4 0 0 1 -4 -4 v-46 a4 4 0 0 1 4 -4 Z"></path><path d="M44 70 h12 v9 h-12 Z"></path><path d="M31 79 h38 a2 2 0 0 1 2 2 v3 a2 2 0 0 1 -2 2 h-38 a2 2 0 0 1 -2 -2 v-3 a2 2 0 0 1 2 -2 Z"></path></g>
    
      <linearGradient id="dp-scr" x1="0" y1="0" x2="0" y2="1">
        <stop offset="0" stop-color="#ff77c8"></stop>
        <stop offset="0.55" stop-color="#b98bff"></stop>
        <stop offset="1" stop-color="#5fe0ff"></stop>
      </linearGradient>
    <filter id="display-glow" x="-40%" y="-40%" width="180%" height="180%">
      <feGaussianBlur stdDeviation="2.2" result="b1"></feGaussianBlur>
      <feGaussianBlur stdDeviation="4.6" in="SourceGraphic" result="b2"></feGaussianBlur>
      <feMerge><feMergeNode in="b2"></feMergeNode><feMergeNode in="b1"></feMergeNode></feMerge>
    </filter>
    <filter id="display-grain" x="-14" y="-14" width="128" height="128">
      <feTurbulence type="fractalNoise" baseFrequency="0.7" numOctaves="2" seed="49"></feTurbulence>
      <feColorMatrix values="0 0 0 0 1  0 0 0 0 1  0 0 0 0 1  0 0 0 0.55 0"></feColorMatrix>
    </filter>
    <pattern id="display-scan" x="0" y="0" width="4" height="2.6" patternUnits="userSpaceOnUse">
      <rect x="-1" y="0" width="6" height="1.3" fill="#000"></rect>
    </pattern>
    <clipPath id="display-clip"><path d="M10 16 h80 a4 4 0 0 1 4 4 v46 a4 4 0 0 1 -4 4 h-80 a4 4 0 0 1 -4 -4 v-46 a4 4 0 0 1 4 -4 Z"></path><path d="M44 70 h12 v9 h-12 Z"></path><path d="M31 79 h38 a2 2 0 0 1 2 2 v3 a2 2 0 0 1 -2 2 h-38 a2 2 0 0 1 -2 -2 v-3 a2 2 0 0 1 2 -2 Z"></path></clipPath>
  </defs>

  
  <g filter="url(#display-glow)" opacity="0.55"><use href="#display-sil" fill="#00e5ff"></use></g>

  
  <use href="#display-sil" fill="#ff4fa8" transform="translate(2.6 0)" opacity="0.5"></use>
  <use href="#display-sil" fill="#c8a8ff" transform="translate(-2.6 0)" opacity="0.5"></use>

  
  <g>
      <path d="M31 79 h38 a2 2 0 0 1 2 2 v3 a2 2 0 0 1 -2 2 h-38 a2 2 0 0 1 -2 -2 v-3 a2 2 0 0 1 2 -2 Z" fill="#0e1b33" stroke="#00e5ff" stroke-width="2.4"></path>
      <rect x="44" y="69.5" width="12" height="9" fill="#0e1b33" stroke="#00e5ff" stroke-width="2.4"></rect>
      <rect x="6.8" y="16.8" width="86.4" height="52.4" rx="3.4" fill="#0c1830" stroke="#00e5ff" stroke-width="3"></rect>
      <clipPath id="dp-screen"><rect x="14" y="22" width="72" height="42" rx="1.5"></rect></clipPath>
      <g clip-path="url(#dp-screen)">
        <rect x="14" y="22" width="72" height="42" fill="url(#dp-scr)"></rect>
        <circle cx="50" cy="50" r="11" fill="#ffe27a"></circle>
        <rect x="14" y="49" width="72" height="2.1" fill="#0c1830"></rect>
        <rect x="14" y="53.4" width="72" height="2.4" fill="#0c1830"></rect>
        <rect x="14" y="58.2" width="72" height="2.8" fill="#0c1830"></rect>
      </g>
      <rect x="14" y="22" width="72" height="42" rx="1.5" fill="none" stroke="#00386a" stroke-width="1.4"></rect>
      <circle cx="88.5" cy="66.4" r="1.7" fill="#ff4fa8"></circle></g>
  

  
  <g opacity="0.4">
    <use href="#display-sil" fill="#00e5ff" transform="translate(3 0)" style="clip-path: inset(34% 0 58% 0)"></use>
    <use href="#display-sil" fill="#ff4fa8" transform="translate(-2 0)" style="clip-path: inset(70% 0 22% 0)"></use>
  </g>

  
  <g clip-path="url(#display-clip)">
    <rect x="-14" y="-14" width="128" height="128" fill="url(#display-scan)" opacity="0.30"></rect>
    <rect x="-14" y="-14" width="128" height="128" filter="url(#display-grain)" opacity="0.10"></rect>
  </g>
</svg>
