<svg xmlns="http://www.w3.org/2000/svg" viewBox="-14 -14 128 128" width="128" height="128">
  <defs>
    <g id="inspector-sil"><path d="M40 40 m-30 0 a30 30 0 1 0 60 0 a30 30 0 1 0 -60 0 Z"></path><path d="M55 65 L65 55 L90 80 L80 90 Z"></path></g>
    
      <radialGradient id="in-glass" cx="0.38" cy="0.34" r="0.85">
        <stop offset="0" stop-color="#173058"></stop>
        <stop offset="1" stop-color="#0a0c2e"></stop>
      </radialGradient>
    <filter id="inspector-glow" x="-40%" y="-40%" width="180%" height="180%">
      <feGaussianBlur stdDeviation="2.2" result="b1"></feGaussianBlur>
      <feGaussianBlur stdDeviation="4.6" in="SourceGraphic" result="b2"></feGaussianBlur>
      <feMerge><feMergeNode in="b2"></feMergeNode><feMergeNode in="b1"></feMergeNode></feMerge>
    </filter>
    <filter id="inspector-grain" x="-14" y="-14" width="128" height="128">
      <feTurbulence type="fractalNoise" baseFrequency="0.7" numOctaves="2" seed="63"></feTurbulence>
      <feColorMatrix values="0 0 0 0 1  0 0 0 0 1  0 0 0 0 1  0 0 0 0.55 0"></feColorMatrix>
    </filter>
    <pattern id="inspector-scan" x="0" y="0" width="4" height="2.6" patternUnits="userSpaceOnUse">
      <rect x="-1" y="0" width="6" height="1.3" fill="#000"></rect>
    </pattern>
    <clipPath id="inspector-clip"><path d="M40 40 m-30 0 a30 30 0 1 0 60 0 a30 30 0 1 0 -60 0 Z"></path><path d="M55 65 L65 55 L90 80 L80 90 Z"></path></clipPath>
  </defs>

  
  <g filter="url(#inspector-glow)" opacity="0.55"><use href="#inspector-sil" fill="#ff4fa8"></use></g>

  
  <use href="#inspector-sil" fill="#00e5ff" transform="translate(2.6 0)" opacity="0.5"></use>
  <use href="#inspector-sil" fill="#c8a8ff" transform="translate(-2.6 0)" opacity="0.5"></use>

  
  <g>
      <path d="M58 58 L86 86" stroke="#ff4fa8" stroke-width="11" stroke-linecap="round"></path>
      <path d="M58 58 L86 86" stroke="#ff9bcb" stroke-width="3.4" stroke-linecap="round" opacity="0.7"></path>
      <circle cx="40" cy="40" r="27" fill="url(#in-glass)"></circle>
      <g>
        <rect x="27" y="33" width="24" height="2.6" rx="1" fill="#66f0ff" opacity="0.9"></rect>
        <rect x="27" y="39.5" width="17" height="2.6" rx="1" fill="#66f0ff" opacity="0.75"></rect>
        <rect x="27" y="46" width="21" height="2.6" rx="1" fill="#66f0ff" opacity="0.85"></rect>
      </g>
      <ellipse cx="31" cy="30" rx="11" ry="7" fill="#9fe9ff" opacity="0.20"></ellipse>
      <circle cx="40" cy="40" r="27" fill="none" stroke="#ff4fa8" stroke-width="7"></circle>
      <circle cx="40" cy="40" r="27" fill="none" stroke="#ffb3d8" stroke-width="2" opacity="0.6"></circle></g>
  

  
  <g opacity="0.4">
    <use href="#inspector-sil" fill="#ff4fa8" transform="translate(3 0)" style="clip-path: inset(34% 0 58% 0)"></use>
    <use href="#inspector-sil" fill="#00e5ff" transform="translate(-2 0)" style="clip-path: inset(70% 0 22% 0)"></use>
  </g>

  
  <g clip-path="url(#inspector-clip)">
    <rect x="-14" y="-14" width="128" height="128" fill="url(#inspector-scan)" opacity="0.30"></rect>
    <rect x="-14" y="-14" width="128" height="128" filter="url(#inspector-grain)" opacity="0.10"></rect>
  </g>
</svg>