<svg xmlns="http://www.w3.org/2000/svg" viewBox="-14 -14 128 128" width="128" height="128">
  <defs>
    <g id="security-sil"><path d="M50 6 L84 19 V49 C84 71 70 86 50 95 C30 86 16 71 16 49 V19 Z"></path></g>
    
      <linearGradient id="sc-body" x1="0" y1="0" x2="0" y2="1">
        <stop offset="0" stop-color="#1a294a"></stop>
        <stop offset="1" stop-color="#0b1530"></stop>
      </linearGradient>
    <filter id="security-glow" x="-40%" y="-40%" width="180%" height="180%">
      <feGaussianBlur stdDeviation="2.2" result="b1"></feGaussianBlur>
      <feGaussianBlur stdDeviation="4.6" in="SourceGraphic" result="b2"></feGaussianBlur>
      <feMerge><feMergeNode in="b2"></feMergeNode><feMergeNode in="b1"></feMergeNode></feMerge>
    </filter>
    <filter id="security-grain" x="-14" y="-14" width="128" height="128">
      <feTurbulence type="fractalNoise" baseFrequency="0.7" numOctaves="2" seed="56"></feTurbulence>
      <feColorMatrix values="0 0 0 0 1  0 0 0 0 1  0 0 0 0 1  0 0 0 0.55 0"></feColorMatrix>
    </filter>
    <pattern id="security-scan" x="0" y="0" width="4" height="2.6" patternUnits="userSpaceOnUse">
      <rect x="-1" y="0" width="6" height="1.3" fill="#000"></rect>
    </pattern>
    <clipPath id="security-clip"><path d="M50 6 L84 19 V49 C84 71 70 86 50 95 C30 86 16 71 16 49 V19 Z"></path></clipPath>
  </defs>

  
  <g filter="url(#security-glow)" opacity="0.55"><use href="#security-sil" fill="#c8a8ff"></use></g>

  
  <use href="#security-sil" fill="#ff4fa8" transform="translate(2.6 0)" opacity="0.5"></use>
  <use href="#security-sil" fill="#00e5ff" transform="translate(-2.6 0)" opacity="0.5"></use>

  
  <g>
      <path d="M50 6 L84 19 V49 C84 71 70 86 50 95 C30 86 16 71 16 49 V19 Z" fill="url(#sc-body)" stroke="#c8a8ff" stroke-width="3"></path>
      <path d="M50 12 L78 22.6 V49 C78 67.5 66 80 50 88 C34 80 22 67.5 22 49 V22.6 Z" fill="none" stroke="#00e5ff" stroke-width="1.3" opacity="0.55"></path>
      <path d="M36 50 L46.5 61 L66 37" fill="none" stroke="#ff4fa8" stroke-width="6.4" stroke-linecap="round" stroke-linejoin="round"></path></g>
  

  
  <g opacity="0.4">
    <use href="#security-sil" fill="#c8a8ff" transform="translate(3 0)" style="clip-path: inset(34% 0 58% 0)"></use>
    <use href="#security-sil" fill="#ff4fa8" transform="translate(-2 0)" style="clip-path: inset(70% 0 22% 0)"></use>
  </g>

  
  <g clip-path="url(#security-clip)">
    <rect x="-14" y="-14" width="128" height="128" fill="url(#security-scan)" opacity="0.30"></rect>
    <rect x="-14" y="-14" width="128" height="128" filter="url(#security-grain)" opacity="0.10"></rect>
  </g>
</svg>